<?xml version="1.0" standalone="no"?>
<!DOCTYPE svg PUBLIC "-//W3C//DTD SVG 20010904//EN"
 "http://www.w3.org/TR/2001/REC-SVG-20010904/DTD/svg10.dtd">
<svg version="1.0" xmlns="http://www.w3.org/2000/svg"
 width="902.000000pt" height="899.000000pt" viewBox="0 0 902.000000 899.000000"
 preserveAspectRatio="xMidYMid meet">

<g transform="translate(0.000000,899.000000) scale(0.100000,-0.100000)"
fill="#000000" stroke="none">
<path d="M0 4495 l0 -4495 4510 0 4510 0 0 4495 0 4495 -4510 0 -4510 0 0
-4495z m5200 3599 c0 -8 -4 -12 -10 -9 -5 3 -10 10 -10 16 0 5 5 9 10 9 6 0
10 -7 10 -16z m-670 -499 c7 -143 16 -264 20 -270 4 -5 10 -22 14 -36 3 -17
15 -29 29 -33 14 -3 31 -22 45 -48 12 -24 22 -37 22 -30 0 6 9 12 20 12 18 0
25 -11 21 -34 -6 -31 62 -50 73 -20 3 9 11 14 18 12 7 -3 23 7 35 20 32 34 40
21 18 -28 -25 -54 -13 -61 32 -17 56 57 72 49 24 -12 -37 -47 -64 -101 -51
-101 5 0 10 -7 10 -15 0 -8 9 -23 21 -33 22 -18 49 -74 49 -101 0 -32 69 -77
83 -53 2 4 2 0 -1 -8 -13 -43 -13 -62 3 -86 13 -20 19 -23 25 -14 5 7 6 19 3
27 -3 7 2 13 11 13 12 0 15 -9 11 -47 -6 -68 4 -116 20 -103 10 8 14 4 19 -14
3 -14 14 -32 23 -41 13 -14 14 -18 3 -25 -11 -7 -8 -13 13 -30 15 -12 27 -25
27 -30 0 -5 5 -21 11 -37 7 -15 11 -43 10 -62 -2 -26 1 -33 12 -28 9 3 20 -4
27 -19 8 -13 20 -24 28 -24 12 0 12 4 -3 20 -10 11 -13 20 -7 20 7 0 12 8 13
18 0 9 5 4 10 -13 5 -16 6 -38 3 -47 -3 -10 -1 -18 5 -18 6 0 11 -4 11 -10 0
-5 -9 -10 -20 -10 -11 0 -20 5 -20 12 0 6 -3 8 -7 5 -3 -4 2 -16 11 -26 10
-11 15 -24 12 -29 -3 -5 8 -15 24 -22 24 -10 30 -19 30 -41 0 -16 4 -29 10
-29 5 0 12 -11 16 -24 3 -14 12 -27 20 -30 8 -3 14 -19 14 -38 0 -18 3 -57 6
-85 6 -48 9 -53 31 -53 16 0 23 -5 20 -12 -2 -7 2 -20 9 -29 8 -8 15 -28 16
-42 1 -15 6 -27 11 -27 4 0 6 -4 2 -9 -3 -5 -1 -12 4 -15 5 -3 7 -16 4 -29 -4
-17 -2 -19 6 -7 5 8 11 12 13 10 28 -43 28 -50 6 -60 -22 -8 -22 -9 5 -9 17
-1 27 -6 27 -16 0 -9 12 -20 28 -26 15 -7 22 -13 15 -16 -22 -8 -14 -58 12
-89 14 -16 25 -35 25 -41 0 -7 4 -13 9 -13 9 0 23 -34 25 -60 1 -8 12 -16 26
-18 74 -8 282 -57 358 -83 188 -66 336 -169 386 -271 38 -75 37 -175 -2 -249
-37 -71 -132 -151 -256 -215 -65 -33 -96 -55 -96 -66 0 -10 5 -18 10 -18 6 0
10 10 10 22 0 31 6 19 13 -24 4 -24 2 -37 -5 -35 -6 1 -12 -3 -14 -8 -3 -6 8
-11 23 -10 33 0 53 -33 53 -87 0 -21 3 -37 8 -37 4 1 15 1 26 0 15 -1 16 -4 6
-16 -17 -21 -4 -65 19 -65 20 0 36 -30 46 -84 4 -19 13 -40 21 -47 8 -6 14
-18 14 -25 0 -10 8 -13 28 -8 19 4 23 3 13 -4 -14 -10 -7 -32 10 -32 6 0 7 5
4 10 -8 13 5 13 25 0 12 -7 12 -12 2 -22 -18 -18 -15 -46 8 -58 11 -6 20 -15
20 -21 0 -6 -4 -7 -10 -4 -5 3 -10 2 -10 -4 0 -5 -3 -17 -7 -27 -4 -12 -3 -15
5 -10 8 5 12 -1 12 -17 0 -32 20 -87 31 -87 5 0 9 -6 9 -14 0 -8 9 -17 19 -21
22 -7 46 -58 36 -75 -5 -9 -1 -10 14 -5 12 3 21 3 20 -2 -1 -4 -1 -18 0 -31 1
-18 5 -21 25 -16 13 3 27 1 30 -4 4 -6 -3 -8 -16 -5 -21 4 -22 3 -5 -10 11
-10 18 -32 21 -69 2 -29 13 -72 25 -93 11 -22 21 -47 21 -57 0 -24 58 -78 85
-78 12 0 25 -7 29 -15 5 -13 2 -14 -17 -4 -18 9 -20 9 -9 -2 6 -7 12 -30 12
-51 0 -40 19 -58 59 -58 22 0 28 -14 11 -25 -19 -12 -10 -24 23 -34 17 -5 24
-10 13 -10 -16 -1 -17 -6 -11 -38 4 -20 12 -42 19 -48 18 -14 27 -43 15 -50
-16 -10 0 -25 29 -26 17 -1 21 -3 10 -6 -19 -5 -25 -33 -8 -33 6 0 10 -7 10
-15 0 -8 5 -15 11 -15 6 0 9 -6 6 -14 -4 -11 1 -14 20 -13 14 1 28 -4 31 -12
3 -10 -1 -12 -17 -8 -11 3 -21 1 -21 -4 0 -5 5 -9 10 -9 6 0 10 -16 10 -36 0
-27 5 -37 20 -41 13 -3 20 -14 20 -28 0 -34 10 -55 26 -55 8 0 14 -4 14 -10 0
-5 -5 -10 -11 -10 -6 0 5 -15 25 -32 34 -32 40 -49 45 -135 1 -7 7 -13 14 -13
12 0 57 -58 57 -74 0 -16 27 -35 65 -47 14 -4 35 -26 35 -37 0 -14 39 -19 250
-33 190 -14 205 -25 35 -28 -157 -3 -273 -18 -311 -40 -19 -12 -41 -21 -49
-21 -8 0 -16 -16 -20 -37 -7 -41 -49 -98 -65 -88 -6 3 -10 -3 -10 -14 0 -32
-17 -33 -29 -3 -14 34 -59 52 -116 47 -29 -2 -40 -7 -39 -19 1 -9 -2 -13 -7
-10 -5 3 -9 11 -9 17 0 14 -208 16 -254 3 -22 -7 -31 -5 -38 8 -10 18 -83 23
-93 6 -3 -5 -12 -10 -18 -9 -9 0 -9 2 1 6 18 7 15 25 -5 22 -10 -1 -22 0 -28
1 -26 6 -75 4 -75 -3 0 -5 -4 -5 -10 -2 -6 3 -7 -1 -4 -9 3 -9 1 -16 -5 -16
-6 0 -11 3 -11 8 0 4 -21 7 -48 6 -80 -1 -93 -4 -87 -14 6 -10 -9 -15 -30 -10
-35 7 -62 7 -73 -2 -9 -8 -16 -6 -26 7 -12 17 -13 16 -20 -8 -4 -18 -15 -27
-36 -32 -26 -6 -36 -2 -62 24 -27 26 -40 31 -80 31 -43 0 -48 -2 -45 -21 1
-12 -4 -24 -10 -26 -7 -3 -13 2 -13 11 0 24 -44 30 -74 11 -14 -10 -33 -14
-42 -11 -13 5 -15 1 -10 -21 5 -19 4 -23 -3 -14 -14 21 -104 33 -114 15 -4 -8
-13 -14 -20 -14 -7 0 -6 4 3 10 8 5 11 12 7 16 -11 11 -36 -16 -30 -33 4 -11
2 -14 -5 -9 -7 4 -12 14 -12 22 0 17 -42 19 -71 3 -19 -10 -57 -15 -199 -25
-45 -3 -69 -9 -77 -21 -12 -16 -13 -16 -13 0 0 19 -36 24 -42 5 -5 -15 -39
-19 -55 -6 -9 7 -13 7 -13 0 0 -7 -10 -5 -27 4 -25 12 -29 12 -39 -1 -6 -8
-22 -15 -35 -15 -18 0 -20 -3 -10 -9 11 -7 9 -10 -8 -16 -11 -3 -21 -13 -21
-21 0 -19 -16 -18 -24 2 -10 26 -51 14 -51 -16 -1 -19 -6 -24 -20 -22 -124 18
-147 11 -148 -46 0 -15 -2 -21 -4 -14 -3 6 -11 12 -18 12 -7 0 -12 8 -10 18 1
9 0 11 -2 5 -3 -7 -10 -13 -16 -13 -8 0 -7 -3 2 -9 11 -7 11 -10 0 -17 -7 -4
-14 -3 -17 4 -6 18 -42 15 -42 -4 0 -8 -4 -13 -9 -9 -15 9 -20 -39 -31 -299
-6 -132 -13 -242 -15 -245 -3 -2 -5 7 -5 20 -3 119 -21 491 -26 516 -6 33 -24
46 -24 18 0 -8 -4 -15 -10 -15 -5 0 -10 8 -10 18 0 13 -16 24 -59 38 -53 19
-62 19 -95 6 -20 -8 -36 -20 -36 -28 0 -8 -4 -14 -10 -14 -5 0 -10 6 -10 13 0
19 -44 37 -90 37 -48 0 -70 8 -70 26 0 10 -14 14 -50 14 -29 0 -50 5 -50 11 0
5 -4 8 -9 5 -5 -3 -14 1 -21 9 -7 8 -23 15 -36 15 -26 0 -41 16 -22 23 7 3 4
6 -7 6 -17 1 -17 3 -5 11 11 7 5 8 -20 5 -19 -2 -63 -5 -98 -7 -42 -1 -66 -7
-71 -16 -10 -18 -46 -11 -46 8 0 8 -4 15 -10 15 -5 0 -9 -3 -7 -8 1 -4 -10 -4
-24 -1 -17 4 -29 2 -35 -7 -7 -10 -11 -11 -16 -3 -5 7 -29 11 -56 10 -41 -2
-48 1 -44 15 5 20 -40 33 -81 22 -36 -9 -78 -31 -74 -40 2 -4 0 -9 -5 -10 -4
-2 -13 7 -18 19 -8 19 -16 22 -49 20 -22 -2 -36 0 -32 6 3 5 -35 12 -92 15
-88 6 -98 5 -110 -13 -13 -19 -15 -18 -38 5 -30 30 -38 31 -64 5 -24 -24 -43
-24 -134 -5 -41 9 -75 11 -85 6 -29 -16 -160 -19 -172 -4 -16 19 -26 16 -33
-10 -5 -22 -10 -23 -92 -22 -75 0 -87 -2 -96 -19 -8 -14 -12 -16 -18 -6 -5 8
-17 10 -35 6 -15 -4 -33 -2 -40 4 -9 7 -16 6 -25 -5 -17 -20 -29 -19 -23 3 3
13 -2 18 -16 18 -12 0 -21 -4 -21 -7 0 -4 -26 -8 -57 -8 -32 0 -59 -4 -61 -10
-2 -6 -8 -9 -13 -5 -5 3 -14 -6 -21 -20 -6 -14 -14 -26 -18 -26 -3 0 -16 -17
-28 -39 -21 -36 -52 -71 -52 -57 0 4 7 23 15 43 18 42 19 63 5 63 -11 0 -60
-48 -60 -59 0 -3 -13 -15 -28 -26 -29 -20 -27 -16 31 56 39 48 47 91 27 143
-7 20 -6 24 5 19 8 -3 15 -1 15 5 0 14 -22 21 -53 15 -18 -4 -27 -1 -27 7 0 7
8 10 19 7 12 -3 22 1 25 9 3 8 1 14 -4 14 -5 0 -11 8 -14 18 -9 28 -112 70
-199 82 -43 5 -140 10 -215 10 -201 1 -145 18 97 30 l200 10 40 41 c28 29 45
39 58 35 16 -5 19 -1 18 26 0 24 6 35 22 44 13 6 20 14 16 17 -3 4 -1 7 5 7 7
0 12 11 12 25 0 16 -6 25 -15 25 -8 0 -15 5 -15 10 0 13 13 13 26 1 14 -15 94
65 94 93 0 13 9 31 19 40 20 18 35 56 22 56 -4 0 -8 7 -8 15 0 20 7 19 23 -2
11 -15 13 -15 14 -3 0 8 9 26 20 40 24 30 25 41 5 34 -8 -4 -15 -1 -15 6 0 6
4 9 8 6 15 -9 37 28 38 62 1 18 10 43 21 55 22 23 42 74 26 64 -5 -3 -10 3
-10 14 -2 17 1 18 13 9 11 -10 14 -9 14 8 0 11 13 33 30 49 37 34 37 39 3 38
-25 0 -28 4 -28 33 0 29 3 32 22 27 32 -8 53 4 53 30 0 13 7 30 15 39 22 22
38 68 26 75 -6 4 4 13 20 20 17 7 33 21 37 30 3 9 8 18 12 21 3 3 14 22 24 43
14 30 15 41 6 53 -10 11 -9 14 4 15 9 1 21 2 27 3 13 1 33 46 21 46 -3 0 3 7
15 15 14 10 19 22 16 35 -4 14 4 25 31 41 29 17 35 25 30 44 -3 12 0 26 6 30
6 4 15 18 20 31 6 14 18 24 30 24 11 0 20 5 20 10 0 6 -6 10 -13 10 -27 0 -12
45 21 60 21 10 31 22 31 35 -1 17 -2 17 -6 3 -5 -18 -15 -23 -26 -12 -10 11
12 44 31 45 9 1 4 5 -13 9 l-30 8 28 1 c15 0 27 5 27 9 0 8 60 36 73 33 5 -1
6 2 3 7 -7 12 15 82 26 82 4 0 8 7 8 16 0 8 12 36 26 60 15 25 24 48 20 51 -3
3 -1 12 5 20 9 10 8 13 -2 13 -8 0 -4 7 8 15 19 13 21 20 12 42 -8 21 -6 30 7
42 9 9 14 11 10 5 -3 -7 1 -15 10 -18 8 -3 13 -2 10 3 -3 5 1 14 9 21 7 6 11
18 8 25 -3 9 5 17 21 21 27 6 33 18 16 29 -5 3 -10 17 -10 31 0 15 4 23 10 19
6 -4 8 -11 5 -16 -13 -21 14 -7 31 16 10 14 24 25 31 25 7 0 13 9 13 20 0 11
6 20 13 20 8 0 8 3 -2 9 -12 8 -12 12 -2 25 7 9 17 14 21 11 4 -3 8 11 8 30 0
19 -5 35 -11 35 -6 0 -1 7 12 17 21 14 22 18 9 27 -9 6 -18 25 -20 41 -3 17
-3 24 -1 18 3 -7 9 -13 14 -13 6 0 7 4 4 10 -3 6 3 10 14 10 14 0 21 6 21 19
0 12 7 18 17 17 12 0 19 7 21 22 2 12 7 22 11 22 5 0 11 14 15 30 5 29 26 43
26 18 0 -7 7 0 15 15 8 16 12 40 9 56 -5 24 -1 32 24 47 17 10 29 21 26 26 -3
4 0 8 6 8 6 0 18 7 26 15 14 13 14 15 0 15 -9 0 -16 7 -16 16 0 21 43 114 52
114 4 0 12 9 18 21 9 17 8 25 -7 41 -18 20 -18 20 17 14 19 -3 29 -3 23 0 -22
10 -14 34 10 34 21 1 21 1 -5 18 -30 18 -36 32 -14 32 8 0 16 7 20 15 3 9 18
15 36 15 27 0 30 3 30 33 0 24 -3 28 -10 17 -7 -11 -10 -11 -10 -2 0 7 -4 10
-10 7 -5 -3 -10 -1 -10 5 0 6 8 10 18 8 9 -2 17 3 17 11 0 8 12 27 27 41 15
15 30 40 33 56 4 16 10 38 15 49 14 33 9 53 -12 47 -10 -2 -18 0 -18 6 0 5 10
12 21 15 15 4 20 11 15 21 -3 9 -9 23 -12 31 -4 10 2 18 17 24 13 5 18 10 12
10 -15 1 -18 31 -3 31 6 0 13 -7 16 -15 4 -8 11 -15 16 -15 6 0 8 6 5 14 -4 9
3 16 18 20 17 4 22 11 18 23 -5 13 -2 15 14 11 18 -5 20 -1 17 38 -3 37 1 47
26 73 17 16 33 43 36 60 4 17 12 31 18 31 6 0 5 4 -3 9 -11 7 -9 10 8 16 16 5
21 14 21 41 0 21 6 37 15 40 8 4 12 11 9 16 -6 10 22 73 43 95 6 7 17 13 23
13 7 0 2 8 -11 19 -20 16 -22 21 -10 35 12 14 11 18 -3 29 -21 16 -17 38 9 52
13 7 22 25 26 50 5 40 5 40 17 13 8 -20 8 -33 -1 -52 -7 -14 -15 -26 -19 -26
-5 0 -8 -10 -8 -22 1 -22 2 -21 16 5 8 15 19 27 25 27 6 0 8 4 4 9 -5 9 15 32
60 69 19 16 11 34 -11 25 -13 -5 -13 -7 -2 -14 15 -10 6 -12 -16 -3 -13 5 -12
9 9 26 25 19 34 48 15 48 -5 0 -10 5 -10 10 0 6 6 10 13 10 19 0 40 47 24 53
-8 3 -6 11 7 26 11 12 21 30 23 41 3 23 43 90 43 73 0 -24 18 -13 29 17 6 18
6 30 0 30 -5 0 -9 -8 -9 -17 0 -14 -4 -13 -21 6 -16 17 -18 26 -10 34 8 8 11
7 11 -3 1 -11 3 -11 11 3 5 9 18 17 27 18 14 0 13 2 -3 9 -12 5 -14 9 -6 9 28
2 61 43 61 76 0 22 9 40 31 61 29 27 30 32 25 81 -4 34 -2 53 5 55 7 2 2 23
-15 56 -14 29 -23 52 -18 52 4 0 35 -28 68 -62 55 -57 59 -59 62 -37 2 14 -11
56 -28 93 -17 38 -29 71 -26 73 2 2 19 -16 37 -41 18 -25 38 -46 46 -46 7 0
13 -6 14 -12 0 -10 2 -10 6 0 2 6 11 12 19 12 8 0 14 5 14 10 0 6 10 10 23 10
26 1 78 45 94 80 36 80 52 176 53 305 0 141 13 312 21 285 4 -14 12 -142 19
-285z m-3310 45 c0 -5 -5 -10 -11 -10 -5 0 -7 5 -4 10 3 6 8 10 11 10 2 0 4
-4 4 -10z m3610 -184 c0 -3 -4 -8 -10 -11 -5 -3 -10 -1 -10 4 0 6 5 11 10 11
6 0 10 -2 10 -4z m-230 -16 c0 -5 -2 -10 -4 -10 -3 0 -8 5 -11 10 -3 6 -1 10
4 10 6 0 11 -4 11 -10z m0 -50 c0 -5 -4 -10 -10 -10 -5 0 -10 5 -10 10 0 6 5
10 10 10 6 0 10 -4 10 -10z m1375 -45 c0 -13 -8 -21 -22 -23 -19 -3 -23 1 -23
23 0 22 4 26 23 23 14 -2 22 -10 22 -23z m-2925 -25 c0 -5 -2 -10 -4 -10 -3 0
-8 5 -11 10 -3 6 -1 10 4 10 6 0 11 -4 11 -10z m1280 -65 c0 -8 -4 -15 -10
-15 -5 0 -10 7 -10 15 0 8 5 15 10 15 6 0 10 -7 10 -15z m-30 -25 c0 -5 -4
-10 -10 -10 -5 0 -10 5 -10 10 0 6 5 10 10 10 6 0 10 -4 10 -10z m1130 -70 c0
-5 -7 -10 -15 -10 -8 0 -15 5 -15 10 0 6 7 10 15 10 8 0 15 -4 15 -10z m920 0
c0 -5 -4 -10 -10 -10 -5 0 -10 5 -10 10 0 6 5 10 10 10 6 0 10 -4 10 -10z
m-2350 -94 c0 -3 -4 -8 -10 -11 -5 -3 -10 -1 -10 4 0 6 5 11 10 11 6 0 10 -2
10 -4z m-405 -76 c0 -30 -35 -40 -55 -15 -10 12 -10 18 0 30 20 25 55 15 55
-15z m1455 -200 c0 -5 -4 -10 -10 -10 -5 0 -10 5 -10 10 0 6 5 10 10 10 6 0
10 -4 10 -10z m1785 -128 c-3 -3 -11 0 -18 7 -9 10 -8 11 6 5 10 -3 15 -9 12
-12z m-2948 -58 c-3 -3 -12 -4 -19 -1 -8 3 -5 6 6 6 11 1 17 -2 13 -5z m1283
-74 c0 -5 -4 -10 -10 -10 -5 0 -10 5 -10 10 0 6 5 10 10 10 6 0 10 -4 10 -10z
m280 -94 c0 -3 -4 -8 -10 -11 -5 -3 -10 -1 -10 4 0 6 5 11 10 11 6 0 10 -2 10
-4z m-2150 -22 c0 -8 -4 -12 -10 -9 -5 3 -10 10 -10 16 0 5 5 9 10 9 6 0 10
-7 10 -16z m1933 -25 c-11 -4 -23 -1 -30 9 -19 23 4 34 28 14 18 -16 18 -17 2
-23z m257 -49 c0 -5 -4 -10 -10 -10 -5 0 -10 5 -10 10 0 6 5 10 10 10 6 0 10
-4 10 -10z m430 -80 c0 -5 -4 -10 -10 -10 -5 0 -10 5 -10 10 0 6 5 10 10 10 6
0 10 -4 10 -10z m-283 -52 c-3 -8 -6 -5 -6 6 -1 11 2 17 5 13 3 -3 4 -12 1
-19z m-2547 -88 c0 -5 -2 -10 -4 -10 -3 0 -8 5 -11 10 -3 6 -1 10 4 10 6 0 11
-4 11 -10z m440 -26 c0 -8 -4 -12 -10 -9 -5 3 -10 10 -10 16 0 5 5 9 10 9 6 0
10 -7 10 -16z m1900 -144 c0 -11 -4 -20 -10 -20 -5 0 -10 9 -10 20 0 11 5 20
10 20 6 0 10 -9 10 -20z m27 -2 c-3 -8 -6 -5 -6 6 -1 11 2 17 5 13 3 -3 4 -12
1 -19z m-27 -38 c12 -8 11 -10 -7 -10 -13 0 -23 5 -23 10 0 13 11 13 30 0z
m718 -2 c-6 -18 -28 -21 -28 -4 0 9 7 16 16 16 9 0 14 -5 12 -12z m-2583 -8
c3 -5 -1 -10 -9 -10 -9 0 -16 5 -16 10 0 6 4 10 9 10 6 0 13 -4 16 -10z m-546
-117 c19 -23 20 -29 8 -47 -21 -30 -41 -40 -71 -32 -36 9 -42 30 -23 72 21 43
56 46 86 7z m-2235 -19 c9 -8 16 -19 16 -24 0 -9 -28 -40 -36 -40 -3 0 -14 5
-25 10 -24 13 -25 46 -1 59 23 14 28 14 46 -5z m4737 -17 c-1 -12 -15 -9 -19
4 -3 6 1 10 8 8 6 -3 11 -8 11 -12z m-4034 -69 c-3 -8 -6 -5 -6 6 -1 11 2 17
5 13 3 -3 4 -12 1 -19z m6058 12 c3 -5 1 -10 -4 -10 -6 0 -11 5 -11 10 0 6 2
10 4 10 3 0 8 -4 11 -10z m-4645 -50 c0 -5 -4 -10 -10 -10 -5 0 -10 5 -10 10
0 6 5 10 10 10 6 0 10 -4 10 -10z m374 -81 c-3 -5 -10 -7 -15 -3 -5 3 -7 10
-3 15 3 5 10 7 15 3 5 -3 7 -10 3 -15z m116 11 c0 -5 -4 -10 -10 -10 -5 0 -10
5 -10 10 0 6 5 10 10 10 6 0 10 -4 10 -10z m-205 -40 c3 -5 1 -10 -4 -10 -6 0
-11 5 -11 10 0 6 2 10 4 10 3 0 8 -4 11 -10z m2902 -62 c-3 -7 -5 -2 -5 12 0
14 2 19 5 13 2 -7 2 -19 0 -25z m-2967 12 c0 -5 -5 -10 -11 -10 -5 0 -7 5 -4
10 3 6 8 10 11 10 2 0 4 -4 4 -10z m2640 -26 c0 -17 -22 -14 -28 4 -2 7 3 12
12 12 9 0 16 -7 16 -16z m-70 -35 c0 -5 -7 -9 -15 -9 -8 0 -15 7 -15 15 0 9 6
12 15 9 8 -4 15 -10 15 -15z m1785 -44 c0 -5 -10 -11 -22 -13 -16 -2 -23 2
-23 13 0 11 7 15 23 13 12 -2 22 -7 22 -13z m-1215 -45 c0 -5 -4 -10 -10 -10
-5 0 -10 5 -10 10 0 6 5 10 10 10 6 0 10 -4 10 -10z m-3786 -31 c-8 -14 -34
-11 -34 4 0 8 3 17 7 20 9 9 34 -13 27 -24z m5911 -99 c3 -5 1 -10 -4 -10 -6
0 -11 5 -11 10 0 6 2 10 4 10 3 0 8 -4 11 -10z m-5545 -100 c0 -5 -4 -10 -10
-10 -5 0 -10 5 -10 10 0 6 5 10 10 10 6 0 10 -4 10 -10z m3815 0 c3 -5 1 -10
-4 -10 -6 0 -11 5 -11 10 0 6 2 10 4 10 3 0 8 -4 11 -10z m-3455 -50 c0 -5 -4
-10 -10 -10 -5 0 -10 5 -10 10 0 6 5 10 10 10 6 0 10 -4 10 -10z m-490 -41 c0
-5 -4 -9 -10 -9 -5 0 -10 7 -10 16 0 8 5 12 10 9 6 -3 10 -10 10 -16z m-1460
1 c0 -5 -4 -10 -10 -10 -5 0 -10 5 -10 10 0 6 5 10 10 10 6 0 10 -4 10 -10z
m5880 -11 c0 -5 -4 -9 -10 -9 -5 0 -10 7 -10 16 0 8 5 12 10 9 6 -3 10 -10 10
-16z m-4010 1 c0 -5 -4 -10 -10 -10 -5 0 -10 5 -10 10 0 6 5 10 10 10 6 0 10
-4 10 -10z m-1190 -10 c0 -5 -4 -10 -10 -10 -5 0 -10 5 -10 10 0 6 5 10 10 10
6 0 10 -4 10 -10z m1187 -56 c-3 -3 -12 -4 -19 -1 -8 3 -5 6 6 6 11 1 17 -2
13 -5z m-607 -40 c0 -8 -5 -12 -10 -9 -6 4 -8 11 -5 16 9 14 15 11 15 -7z
m200 -4 c0 -5 -4 -10 -10 -10 -5 0 -10 5 -10 10 0 6 5 10 10 10 6 0 10 -4 10
-10z m350 -80 c0 -5 -4 -10 -10 -10 -5 0 -10 5 -10 10 0 6 5 10 10 10 6 0 10
-4 10 -10z m3510 -95 c0 -8 -7 -15 -15 -15 -8 0 -15 7 -15 15 0 8 7 15 15 15
8 0 15 -7 15 -15z m-4020 -4 c0 -6 -4 -13 -10 -16 -5 -3 -10 1 -10 9 0 9 5 16
10 16 6 0 10 -4 10 -9z m407 -137 c-3 -3 -12 -4 -19 -1 -8 3 -5 6 6 6 11 1 17
-2 13 -5z m-47 -94 c0 -5 -5 -10 -11 -10 -5 0 -7 5 -4 10 3 6 8 10 11 10 2 0
4 -4 4 -10z m-122 -22 c-6 -18 -28 -21 -28 -4 0 9 7 16 16 16 9 0 14 -5 12
-12z m-868 -8 c0 -5 -5 -10 -11 -10 -5 0 -7 5 -4 10 3 6 8 10 11 10 2 0 4 -4
4 -10z m540 -10 c0 -5 -4 -10 -10 -10 -5 0 -10 5 -10 10 0 6 5 10 10 10 6 0
10 -4 10 -10z m-1255 -30 c3 -5 1 -10 -4 -10 -6 0 -11 5 -11 10 0 6 2 10 4 10
3 0 8 -4 11 -10z m5022 -32 c-3 -8 -6 -5 -6 6 -1 11 2 17 5 13 3 -3 4 -12 1
-19z m-4107 -3 c0 -8 -4 -15 -10 -15 -5 0 -10 7 -10 15 0 8 5 15 10 15 6 0 10
-7 10 -15z m640 11 c0 -3 -4 -8 -10 -11 -5 -3 -10 -1 -10 4 0 6 5 11 10 11 6
0 10 -2 10 -4z m3520 -26 c0 -5 -2 -10 -4 -10 -3 0 -8 5 -11 10 -3 6 -1 10 4
10 6 0 11 -4 11 -10z m-3634 -87 c-10 -10 -19 5 -10 18 6 11 8 11 12 0 2 -7 1
-15 -2 -18z m4369 17 c3 -5 1 -10 -4 -10 -6 0 -11 5 -11 10 0 6 2 10 4 10 3 0
8 -4 11 -10z m-4265 -10 c0 -5 -4 -10 -10 -10 -5 0 -10 5 -10 10 0 6 5 10 10
10 6 0 10 -4 10 -10z m-1760 -149 c0 -14 -18 -23 -30 -16 -6 4 -8 11 -5 16 8
12 35 12 35 0z m5570 5 c0 -2 -7 -7 -16 -10 -8 -3 -12 -2 -9 4 6 10 25 14 25
6z m-220 -26 c0 -5 -4 -10 -10 -10 -5 0 -10 5 -10 10 0 6 5 10 10 10 6 0 10
-4 10 -10z m-3710 -40 c0 -11 -4 -20 -9 -20 -5 0 -7 9 -4 20 3 11 7 20 9 20 2
0 4 -9 4 -20z m3820 -5 c0 -2 -10 -9 -22 -15 -22 -11 -22 -10 -4 4 21 17 26
19 26 11z m-3939 -100 c-1 -15 -24 -12 -29 3 -3 9 2 13 12 10 10 -1 17 -7 17
-13z m99 -5 c0 -5 -4 -10 -10 -10 -5 0 -10 5 -10 10 0 6 5 10 10 10 6 0 10 -4
10 -10z m3980 -10 c0 -5 -7 -10 -15 -10 -8 0 -15 5 -15 10 0 6 7 10 15 10 8 0
15 -4 15 -10z m-95 -50 c3 -5 -1 -10 -9 -10 -9 0 -16 5 -16 10 0 6 4 10 9 10
6 0 13 -4 16 -10z m-4025 -54 c0 -3 -4 -8 -10 -11 -5 -3 -10 -1 -10 4 0 6 5
11 10 11 6 0 10 -2 10 -4z m-980 -56 c0 -5 -2 -10 -4 -10 -3 0 -8 5 -11 10 -3
6 -1 10 4 10 6 0 11 -4 11 -10z m835 -40 c3 -5 1 -10 -4 -10 -6 0 -11 5 -11
10 0 6 2 10 4 10 3 0 8 -4 11 -10z m155 -20 c0 -5 -8 -10 -17 -10 -15 0 -16 2
-3 10 19 12 20 12 20 0z m4880 0 c0 -5 -4 -10 -10 -10 -5 0 -10 5 -10 10 0 6
5 10 10 10 6 0 10 -4 10 -10z m-250 -10 c0 -5 -7 -10 -15 -10 -8 0 -15 5 -15
10 0 6 7 10 15 10 8 0 15 -4 15 -10z m-4710 -15 c0 -8 -4 -15 -10 -15 -5 0
-10 7 -10 15 0 8 5 15 10 15 6 0 10 -7 10 -15z m-90 -35 c0 -5 -5 -10 -11 -10
-5 0 -7 5 -4 10 3 6 8 10 11 10 2 0 4 -4 4 -10z m5520 -14 c0 -3 -4 -8 -10
-11 -5 -3 -10 -1 -10 4 0 6 5 11 10 11 6 0 10 -2 10 -4z m-6120 -61 c0 -8 -4
-15 -10 -15 -5 0 -10 7 -10 15 0 8 5 15 10 15 6 0 10 -7 10 -15z m520 -45 c0
-5 -4 -10 -10 -10 -5 0 -10 5 -10 10 0 6 5 10 10 10 6 0 10 -4 10 -10z m-190
-50 c0 -11 -2 -20 -4 -20 -2 0 -6 9 -9 20 -3 11 -1 20 4 20 5 0 9 -9 9 -20z
m5514 -89 c17 -19 17 -20 -8 -36 -21 -14 -29 -15 -41 -5 -18 15 -19 32 -3 48
17 17 32 15 52 -7z m-5354 -11 c0 -5 -4 -10 -10 -10 -5 0 -10 5 -10 10 0 6 5
10 10 10 6 0 10 -4 10 -10z m-360 -90 c0 -5 -5 -10 -11 -10 -5 0 -7 5 -4 10 3
6 8 10 11 10 2 0 4 -4 4 -10z m-340 -16 c0 -8 -4 -12 -10 -9 -5 3 -10 10 -10
16 0 5 5 9 10 9 6 0 10 -7 10 -16z m5440 -64 c0 -11 -4 -20 -10 -20 -5 0 -10
9 -10 20 0 11 5 20 10 20 6 0 10 -9 10 -20z m-4978 -22 c-7 -7 -12 -8 -12 -2
0 14 12 26 19 19 2 -3 -1 -11 -7 -17z m-175 -70 c-3 -8 -6 -5 -6 6 -1 11 2 17
5 13 3 -3 4 -12 1 -19z m5053 2 c0 -5 -2 -10 -4 -10 -3 0 -8 5 -11 10 -3 6 -1
10 4 10 6 0 11 -4 11 -10z m160 -19 c0 -6 -4 -12 -8 -15 -5 -3 -9 1 -9 9 0 8
4 15 9 15 4 0 8 -4 8 -9z m-85 -101 c-3 -5 -13 -10 -21 -10 -8 0 -14 5 -14 10
0 6 9 10 21 10 11 0 17 -4 14 -10z m-5250 -50 c3 -5 1 -10 -4 -10 -6 0 -11 5
-11 10 0 6 2 10 4 10 3 0 8 -4 11 -10z m5232 -22 c-3 -8 -6 -5 -6 6 -1 11 2
17 5 13 3 -3 4 -12 1 -19z m323 -99 c0 -20 -15 -26 -25 -9 -9 15 3 43 15 35 5
-3 10 -15 10 -26z m430 -39 c0 -5 -4 -10 -10 -10 -5 0 -10 5 -10 10 0 6 5 10
10 10 6 0 10 -4 10 -10z m-5710 -20 c0 -5 -4 -10 -10 -10 -5 0 -10 5 -10 10 0
6 5 10 10 10 6 0 10 -4 10 -10z m5300 -56 c0 -8 -4 -12 -10 -9 -5 3 -10 10
-10 16 0 5 5 9 10 9 6 0 10 -7 10 -16z m-5683 -30 c9 -25 -12 -38 -31 -19 -9
9 -14 21 -11 26 10 14 35 10 42 -7z m5553 -24 c0 -5 -5 -10 -11 -10 -5 0 -7 5
-4 10 3 6 8 10 11 10 2 0 4 -4 4 -10z m-5320 -30 c0 -5 -4 -10 -10 -10 -5 0
-10 5 -10 10 0 6 5 10 10 10 6 0 10 -4 10 -10z m5980 -60 c0 -5 -4 -10 -10
-10 -5 0 -10 5 -10 10 0 6 5 10 10 10 6 0 10 -4 10 -10z m-639 -27 c-8 -15
-10 -15 -11 -2 0 17 10 32 18 25 2 -3 -1 -13 -7 -23z m-5831 -4 c0 -5 -4 -9
-10 -9 -5 0 -10 7 -10 16 0 8 5 12 10 9 6 -3 10 -10 10 -16z m6640 1 c0 -5 -5
-10 -11 -10 -5 0 -7 5 -4 10 3 6 8 10 11 10 2 0 4 -4 4 -10z m-6170 -70 c0 -5
-4 -10 -10 -10 -5 0 -10 5 -10 10 0 6 5 10 10 10 6 0 10 -4 10 -10z m5419
-100 c0 -10 -3 -8 -9 5 -12 27 -12 43 0 25 5 -8 9 -22 9 -30z m41 -44 c0 -3
-6 -6 -14 -6 -15 0 -28 24 -19 34 6 5 33 -18 33 -28z m10 -211 c0 -8 -4 -15
-9 -15 -13 0 -22 16 -14 24 11 11 23 6 23 -9z m-665 -115 c3 -5 1 -10 -4 -10
-6 0 -11 5 -11 10 0 6 2 10 4 10 3 0 8 -4 11 -10z m-3225 -30 c0 -5 -4 -10
-10 -10 -5 0 -10 5 -10 10 0 6 5 10 10 10 6 0 10 -4 10 -10z m2295 -10 c3 -5
-1 -10 -10 -10 -9 0 -13 5 -10 10 3 6 8 10 10 10 2 0 7 -4 10 -10z m422 4 c-3
-3 -12 -4 -19 -1 -8 3 -5 6 6 6 11 1 17 -2 13 -5z m-2217 -32 c0 -8 -1 -13 -3
-11 -1 2 -9 12 -16 22 -12 15 -12 17 3 11 9 -3 16 -13 16 -22z m-520 -12 c0
-5 -2 -10 -4 -10 -3 0 -8 5 -11 10 -3 6 -1 10 4 10 6 0 11 -4 11 -10z m140
-10 c0 -5 -4 -10 -10 -10 -5 0 -10 5 -10 10 0 6 5 10 10 10 6 0 10 -4 10 -10z
m2500 1 c0 -6 -4 -13 -10 -16 -5 -3 -10 1 -10 9 0 9 5 16 10 16 6 0 10 -4 10
-9z m-2860 -26 c0 -8 -4 -15 -10 -15 -5 0 -10 7 -10 15 0 8 5 15 10 15 6 0 10
-7 10 -15z m364 -10 c3 -9 0 -15 -9 -15 -8 0 -15 7 -15 15 0 8 4 15 9 15 5 0
11 -7 15 -15z m1676 5 c0 -5 -4 -10 -10 -10 -5 0 -10 5 -10 10 0 6 5 10 10 10
6 0 10 -4 10 -10z m152 -12 c-7 -7 -12 -8 -12 -2 0 14 12 26 19 19 2 -3 -1
-11 -7 -17z m1320 7 c0 -5 -5 -11 -11 -13 -6 -2 -11 4 -11 13 0 9 5 15 11 13
6 -2 11 -8 11 -13z m-2662 -10 c0 -8 -4 -15 -10 -15 -5 0 -10 7 -10 15 0 8 5
15 10 15 6 0 10 -7 10 -15z m1665 -24 c3 -5 1 -12 -5 -16 -5 -3 -10 1 -10 9 0
18 6 21 15 7z m-3965 -5 c0 -3 -4 -8 -10 -11 -5 -3 -10 -1 -10 4 0 6 5 11 10
11 6 0 10 -2 10 -4z m3057 -48 c-3 -7 -5 -2 -5 12 0 14 2 19 5 13 2 -7 2 -19
0 -25z m-2247 -8 c0 -5 -4 -10 -10 -10 -5 0 -10 5 -10 10 0 6 5 10 10 10 6 0
10 -4 10 -10z m650 0 c0 -5 -4 -10 -10 -10 -5 0 -10 5 -10 10 0 6 5 10 10 10
6 0 10 -4 10 -10z m1065 0 c-3 -5 -10 -10 -16 -10 -5 0 -9 5 -9 10 0 6 7 10
16 10 8 0 12 -4 9 -10z m-979 -37 c-10 -10 -19 5 -10 18 6 11 8 11 12 0 2 -7
1 -15 -2 -18z m109 17 c3 -5 1 -10 -4 -10 -6 0 -11 5 -11 10 0 6 2 10 4 10 3
0 8 -4 11 -10z m-355 -14 c0 -3 -4 -8 -10 -11 -5 -3 -10 -1 -10 4 0 6 5 11 10
11 6 0 10 -2 10 -4z m-470 -16 c0 -5 -5 -10 -11 -10 -5 0 -7 5 -4 10 3 6 8 10
11 10 2 0 4 -4 4 -10z m390 -50 c0 -5 -4 -10 -10 -10 -5 0 -10 5 -10 10 0 6 5
10 10 10 6 0 10 -4 10 -10z m-1465 -49 c3 -5 1 -12 -5 -16 -5 -3 -10 1 -10 9
0 18 6 21 15 7z m6205 -11 c0 -5 -2 -10 -4 -10 -3 0 -8 5 -11 10 -3 6 -1 10 4
10 6 0 11 -4 11 -10z m-4570 -20 c0 -5 -4 -10 -10 -10 -5 0 -10 5 -10 10 0 6
5 10 10 10 6 0 10 -4 10 -10z m230 -20 c0 -5 -5 -10 -11 -10 -5 0 -7 5 -4 10
3 6 8 10 11 10 2 0 4 -4 4 -10z m-770 -30 c0 -5 -5 -10 -11 -10 -5 0 -7 5 -4
10 3 6 8 10 11 10 2 0 4 -4 4 -10z m3046 -24 c7 -31 -1 -46 -26 -46 -23 0 -36
36 -20 55 19 22 39 18 46 -9z m-3766 -47 c0 -6 -4 -7 -10 -4 -5 3 -10 11 -10
16 0 6 5 7 10 4 6 -3 10 -11 10 -16z m1970 11 c0 -5 -2 -10 -4 -10 -3 0 -8 5
-11 10 -3 6 -1 10 4 10 6 0 11 -4 11 -10z m980 -70 c0 -5 -2 -10 -4 -10 -3 0
-8 5 -11 10 -3 6 -1 10 4 10 6 0 11 -4 11 -10z m-280 -15 c0 -8 -4 -15 -10
-15 -5 0 -10 7 -10 15 0 8 5 15 10 15 6 0 10 -7 10 -15z m-1825 -5 c3 -5 2
-10 -4 -10 -5 0 -13 5 -16 10 -3 6 -2 10 4 10 5 0 13 -4 16 -10z m-795 -10 c0
-5 -4 -10 -10 -10 -5 0 -10 5 -10 10 0 6 5 10 10 10 6 0 10 -4 10 -10z m4414
-46 c9 -8 16 -25 16 -38 0 -48 -52 -62 -88 -23 l-22 24 24 26 c29 31 48 34 70
11z m-1904 -149 c0 -8 -7 -15 -15 -15 -8 0 -15 7 -15 15 0 8 7 15 15 15 8 0
15 -7 15 -15z m2990 -65 c0 -5 -4 -10 -10 -10 -5 0 -10 5 -10 10 0 6 5 10 10
10 6 0 10 -4 10 -10z m-3605 -190 c3 -5 1 -10 -4 -10 -6 0 -11 5 -11 10 0 6 2
10 4 10 3 0 8 -4 11 -10z"/>
<path d="M3910 6499 c0 -5 5 -7 10 -4 6 3 10 8 10 11 0 2 -4 4 -10 4 -5 0 -10
-5 -10 -11z"/>
<path d="M5180 6286 c0 -2 7 -6 15 -10 8 -3 15 -1 15 4 0 6 -7 10 -15 10 -8 0
-15 -2 -15 -4z"/>
<path d="M3795 6270 c3 -5 11 -10 16 -10 6 0 7 5 4 10 -3 6 -11 10 -16 10 -6
0 -7 -4 -4 -10z"/>
<path d="M4407 6124 c-12 -14 -43 -48 -68 -75 -25 -27 -59 -73 -74 -101 -16
-29 -47 -80 -70 -113 -23 -33 -54 -85 -69 -115 -41 -83 -93 -169 -124 -205
-70 -81 -85 -105 -104 -160 -10 -32 -32 -71 -49 -87 -16 -16 -29 -38 -29 -48
0 -10 -3 -20 -7 -22 -11 -4 -53 -70 -93 -143 -18 -33 -48 -82 -66 -110 -34
-52 -129 -228 -164 -305 -11 -24 -27 -51 -35 -60 -7 -8 -30 -46 -50 -85 -21
-38 -41 -71 -46 -73 -4 -2 -13 -19 -19 -38 -7 -20 -14 -33 -17 -30 -7 7 -43
-38 -43 -53 0 -14 -29 -59 -52 -83 -10 -10 -18 -22 -18 -27 0 -5 -16 -33 -35
-63 -20 -29 -38 -63 -41 -75 -4 -13 -10 -23 -15 -23 -5 0 -9 -8 -9 -18 0 -20
-63 -122 -97 -157 -10 -11 -29 -41 -42 -67 -12 -26 -32 -62 -44 -80 -12 -18
-28 -44 -35 -58 -7 -14 -21 -38 -31 -55 -11 -16 -20 -36 -20 -43 -1 -7 -19
-36 -40 -65 -43 -58 -95 -156 -87 -164 6 -6 -20 -57 -43 -86 -19 -23 -38 -56
-51 -89 -6 -14 -17 -29 -25 -32 -7 -2 -16 -18 -20 -35 -3 -16 -13 -35 -20 -41
-8 -7 -24 -37 -35 -68 -12 -32 -27 -66 -34 -77 -6 -11 -27 -55 -45 -97 -19
-43 -37 -75 -41 -73 -5 3 -23 -33 -41 -80 -17 -47 -35 -85 -39 -85 -4 0 -11
-19 -14 -42 -18 -127 -17 -131 32 -101 15 9 7 -1 -18 -23 l-44 -41 39 -14 c22
-7 44 -12 49 -11 5 2 27 -4 49 -13 43 -17 157 -23 497 -24 221 -1 810 16 870
25 25 4 76 7 115 6 38 0 75 4 82 10 8 7 22 7 41 0 19 -7 51 -6 100 3 75 12
106 29 98 52 -8 19 7 16 38 -8 25 -20 28 -20 45 -5 10 9 28 16 40 16 12 0 35
7 50 15 16 8 31 11 35 8 4 -4 14 3 22 16 12 16 19 19 28 12 18 -15 26 -3 27
43 l1 41 8 -48 c5 -27 11 -51 14 -54 2 -3 33 -7 68 -10 35 -4 68 -12 73 -18
17 -21 114 -47 204 -56 47 -5 103 -11 125 -15 25 -4 37 -3 32 4 -3 5 1 12 9
16 9 3 15 0 15 -8 0 -8 8 -13 18 -11 9 1 23 -2 30 -8 7 -5 70 -11 140 -13 70
-2 215 -8 322 -13 600 -29 1104 -23 1193 16 44 19 46 27 12 49 -32 21 -27 28
10 14 22 -9 26 -8 22 4 -3 8 -9 32 -13 53 -3 21 -12 45 -19 53 -7 8 -29 51
-49 95 -20 44 -41 87 -46 95 -5 8 -21 38 -36 65 -14 28 -34 61 -44 75 -10 14
-28 50 -40 80 -13 30 -38 76 -56 102 -33 47 -40 59 -112 201 -21 43 -48 88
-59 100 -11 12 -37 54 -57 92 -20 39 -41 77 -46 85 -6 8 -16 24 -23 35 -7 12
-20 34 -30 50 -10 17 -41 71 -68 120 -45 81 -66 114 -115 180 -26 35 -63 98
-104 179 -22 44 -50 91 -63 105 -13 14 -59 86 -103 159 l-79 132 -176 0 c-133
0 -207 5 -299 21 -101 17 -124 18 -131 7 -7 -10 -9 -9 -9 4 0 12 -25 25 -92
47 -183 61 -338 172 -390 279 -29 62 -34 128 -13 191 20 62 111 161 195 214
60 38 195 93 307 127 72 22 72 22 61 48 -7 15 -21 38 -33 52 -12 14 -41 63
-65 110 -23 47 -48 92 -55 100 -7 8 -26 42 -43 76 -17 33 -46 79 -66 103 -30
36 -36 39 -36 21 0 -11 -5 -18 -10 -15 -7 4 -7 12 0 25 15 27 14 30 -29 96
-42 62 -101 134 -101 122 0 -4 -9 0 -20 9 -16 14 -17 19 -6 23 11 4 9 8 -9 17
-22 10 -25 9 -25 -8 0 -10 -5 -19 -11 -19 -6 0 -8 -7 -5 -16 3 -9 2 -12 -5 -9
-6 4 -8 14 -5 22 3 8 -1 24 -9 36 l-15 21 0 -21 c0 -12 -4 -25 -10 -28 -5 -3
-10 -22 -10 -42 0 -53 -13 -31 -25 40 -9 57 -12 62 -38 65 -20 3 -33 -4 -50
-24z m128 -844 c6 -20 -10 -60 -24 -60 -5 0 -14 7 -21 15 -11 13 -11 20 0 40
16 30 36 32 45 5z m-15 -250 c0 -5 -4 -10 -10 -10 -5 0 -10 5 -10 10 0 6 5 10
10 10 6 0 10 -4 10 -10z m-500 -150 c0 -5 -5 -10 -11 -10 -5 0 -7 5 -4 10 3 6
8 10 11 10 2 0 4 -4 4 -10z m170 -440 c0 -5 -4 -10 -10 -10 -5 0 -10 5 -10 10
0 6 5 10 10 10 6 0 10 -4 10 -10z m-536 -26 c4 -10 1 -14 -6 -12 -15 5 -23 28
-10 28 5 0 13 -7 16 -16z m-127 -60 c-3 -3 -12 -4 -19 -1 -8 3 -5 6 6 6 11 1
17 -2 13 -5z m643 -149 c0 -25 -23 -35 -35 -15 -10 16 2 40 20 40 9 0 15 -9
15 -25z m-440 -195 c0 -5 -4 -10 -10 -10 -5 0 -10 5 -10 10 0 6 5 10 10 10 6
0 10 -4 10 -10z m790 -36 c0 -8 -5 -12 -10 -9 -6 4 -8 11 -5 16 9 14 15 11 15
-7z m1098 -7 c4 -20 -25 -34 -40 -19 -15 15 -1 44 19 40 10 -2 19 -11 21 -21z
m-2318 -402 c0 -8 -4 -15 -10 -15 -5 0 -10 7 -10 15 0 8 5 15 10 15 6 0 10 -7
10 -15z m2265 -115 c3 -5 1 -10 -4 -10 -6 0 -11 5 -11 10 0 6 2 10 4 10 3 0 8
-4 11 -10z m-2595 -14 c0 -3 -4 -8 -10 -11 -5 -3 -10 -1 -10 4 0 6 5 11 10 11
6 0 10 -2 10 -4z m3100 -12 c0 -8 -4 -12 -10 -9 -5 3 -10 10 -10 16 0 5 5 9
10 9 6 0 10 -7 10 -16z m-1170 -34 c0 -24 -41 -53 -64 -44 -23 9 -20 50 6 68
26 18 58 5 58 -24z m450 -100 c0 -5 -2 -10 -4 -10 -3 0 -8 5 -11 10 -3 6 -1
10 4 10 6 0 11 -4 11 -10z m-2170 -55 c0 -8 -4 -15 -10 -15 -5 0 -10 7 -10 15
0 8 5 15 10 15 6 0 10 -7 10 -15z m960 -181 c0 -8 -7 -14 -15 -14 -15 0 -21
21 -9 33 10 9 24 -2 24 -19z m1690 -59 c0 -8 -7 -15 -15 -15 -8 0 -15 7 -15
15 0 8 7 15 15 15 8 0 15 -7 15 -15z m-3080 -10 c0 -8 -4 -15 -9 -15 -13 0
-22 16 -14 24 11 11 23 6 23 -9z m550 -5 c0 -5 -7 -10 -15 -10 -8 0 -15 5 -15
10 0 6 7 10 15 10 8 0 15 -4 15 -10z m1220 -9 c0 -6 -4 -13 -10 -16 -5 -3 -10
1 -10 9 0 9 5 16 10 16 6 0 10 -4 10 -9z m350 -91 c0 -5 -7 -10 -15 -10 -8 0
-15 5 -15 10 0 6 7 10 15 10 8 0 15 -4 15 -10z m-1350 -60 c0 -5 -2 -10 -4
-10 -3 0 -8 5 -11 10 -3 6 -1 10 4 10 6 0 11 -4 11 -10z m2611 -116 c12 -14
11 -16 -5 -13 -11 2 -21 10 -24 17 -5 17 13 15 29 -4z m-2831 -13 c0 -6 -4
-13 -10 -16 -5 -3 -10 1 -10 9 0 9 5 16 10 16 6 0 10 -4 10 -9z m-555 -48 c3
-13 3 -23 -2 -23 -11 0 -32 47 -25 55 8 7 18 -6 27 -32z m2296 -16 c-10 -9
-11 -8 -5 6 3 10 9 15 12 12 3 -3 0 -11 -7 -18z m-2544 -29 c-3 -8 -6 -5 -6 6
-1 11 2 17 5 13 3 -3 4 -12 1 -19z m2017 5 c8 -21 -10 -41 -24 -27 -11 11 -3
44 10 44 4 0 11 -8 14 -17z m932 -4 c10 -17 -13 -36 -27 -22 -12 12 -4 33 11
33 5 0 12 -5 16 -11z m-1898 -51 c-6 -18 -28 -21 -28 -4 0 9 7 16 16 16 9 0
14 -5 12 -12z m162 2 c0 -5 -4 -10 -10 -10 -5 0 -10 5 -10 10 0 6 5 10 10 10
6 0 10 -4 10 -10z m1260 -49 c0 -12 -20 -25 -27 -18 -7 7 6 27 18 27 5 0 9 -4
9 -9z m-610 -61 c0 -5 -5 -10 -11 -10 -5 0 -7 5 -4 10 3 6 8 10 11 10 2 0 4
-4 4 -10z m810 0 c0 -5 -2 -10 -4 -10 -3 0 -8 5 -11 10 -3 6 -1 10 4 10 6 0
11 -4 11 -10z m390 6 c0 -3 -4 -8 -10 -11 -5 -3 -10 -1 -10 4 0 6 5 11 10 11
6 0 10 -2 10 -4z m-1743 -58 c-3 -8 -6 -5 -6 6 -1 11 2 17 5 13 3 -3 4 -12 1
-19z m-847 -8 c0 -5 -4 -10 -10 -10 -5 0 -10 5 -10 10 0 6 5 10 10 10 6 0 10
-4 10 -10z m2497 -12 c-3 -8 -6 -5 -6 6 -1 11 2 17 5 13 3 -3 4 -12 1 -19z
m533 12 c0 -5 -4 -10 -10 -10 -5 0 -10 5 -10 10 0 6 5 10 10 10 6 0 10 -4 10
-10z m-2739 -13 c-1 -12 -15 -9 -19 4 -3 6 1 10 8 8 6 -3 11 -8 11 -12z m3039
9 c0 -3 -4 -8 -10 -11 -5 -3 -10 -1 -10 4 0 6 5 11 10 11 6 0 10 -2 10 -4z"/>
<path d="M4560 6120 c0 -5 5 -10 10 -10 6 0 10 5 10 10 0 6 -4 10 -10 10 -5 0
-10 -4 -10 -10z"/>
<path d="M3500 5685 c0 -9 6 -12 15 -9 8 4 15 10 15 15 0 5 -7 9 -15 9 -8 0
-15 -7 -15 -15z"/>
<path d="M3541 5644 c0 -11 3 -14 6 -6 3 7 2 16 -1 19 -3 4 -6 -2 -5 -13z"/>
<path d="M5686 5292 c-4 -7 3 -14 18 -18 18 -4 26 -15 31 -42 6 -31 9 -34 15
-17 5 14 9 3 14 -40 7 -59 30 -125 44 -125 4 0 20 -11 35 -24 17 -15 35 -22
47 -19 15 4 20 0 20 -16 0 -11 -3 -20 -7 -20 -23 4 -29 -4 -25 -31 6 -40 25
-55 52 -40 12 6 24 9 27 6 8 -8 -7 -27 -17 -21 -17 10 -22 -17 -6 -34 9 -10
16 -28 16 -40 0 -12 8 -36 17 -54 9 -18 18 -36 18 -42 1 -5 3 -15 3 -21 1 -7
11 -14 22 -17 12 -3 20 -14 20 -26 0 -12 9 -29 19 -38 11 -9 18 -20 15 -25 -9
-14 4 -9 91 34 117 58 184 112 218 179 71 141 -7 271 -227 379 -143 71 -441
143 -460 112z m371 -384 c-3 -8 -6 -5 -6 6 -1 11 2 17 5 13 3 -3 4 -12 1 -19z
m43 -68 c0 -5 -2 -10 -4 -10 -3 0 -8 5 -11 10 -3 6 -1 10 4 10 6 0 11 -4 11
-10z m160 -60 c0 -5 -5 -10 -11 -10 -5 0 -7 5 -4 10 3 6 8 10 11 10 2 0 4 -4
4 -10z"/>
<path d="M5064 5270 c-156 -31 -343 -125 -426 -214 -50 -53 -69 -97 -71 -160
-2 -103 86 -201 258 -286 115 -57 201 -82 370 -110 123 -21 399 -28 409 -12 3
5 -24 58 -60 118 -35 60 -68 116 -73 124 -4 8 -18 20 -30 26 -14 7 -18 14 -12
18 7 5 2 21 -14 46 -14 22 -23 40 -19 40 3 0 -10 19 -28 43 -18 23 -53 82 -78
130 -25 48 -62 108 -82 133 -21 26 -38 51 -38 58 -1 17 -37 56 -52 55 -7 -1
-32 -5 -54 -9z m-274 -295 c0 -8 -7 -15 -15 -15 -8 0 -15 7 -15 15 0 8 7 15
15 15 8 0 15 -7 15 -15z m490 -445 c0 -5 -7 -10 -16 -10 -8 0 -12 5 -9 10 3 6
10 10 16 10 5 0 9 -4 9 -10z"/>
<path d="M3200 4949 c0 -5 5 -7 10 -4 6 3 10 8 10 11 0 2 -4 4 -10 4 -5 0 -10
-5 -10 -11z"/>
<path d="M2804 4244 c3 -9 6 -18 6 -20 0 -3 4 -3 10 1 11 7 2 35 -12 35 -6 0
-7 -7 -4 -16z"/>
<path d="M7030 2570 c0 -5 5 -10 11 -10 5 0 7 5 4 10 -3 6 -8 10 -11 10 -2 0
-4 -4 -4 -10z"/>
<path d="M7220 2290 c0 -5 5 -10 10 -10 6 0 10 5 10 10 0 6 -4 10 -10 10 -5 0
-10 -4 -10 -10z"/>
<path d="M3458 1993 c7 -3 16 -2 19 1 4 3 -2 6 -13 5 -11 0 -14 -3 -6 -6z"/>
<path d="M1865 1940 c3 -5 8 -10 11 -10 2 0 4 5 4 10 0 6 -5 10 -11 10 -5 0
-7 -4 -4 -10z"/>
</g>
</svg>
